<svg xmlns="http://www.w3.org/2000/svg" viewBox="0 0 512 512" role="img" aria-label="New Tab">
  <defs>
    <clipPath id="circle">
      <circle cx="256" cy="256" r="226"/>
    </clipPath>
  </defs>
  <g clip-path="url(#circle)">
    <path fill="#ea4335" d="M256 256 92 40h328c34 0 52 38 32 66L323 286z"/>
    <path fill="#fbbc04" d="M256 256h256v216H234c-34 0-52-38-32-66l54-150z"/>
    <path fill="#34a853" d="M256 256 202 406 38 122C21 93 42 56 76 56h178z"/>
    <path fill="#4285f4" d="M80 472h154l89-186 129-180c38 41 60 94 60 150 0 125-101 226-226 226-78 0-151-41-192-109z"/>
  </g>
  <circle cx="256" cy="256" r="112" fill="#1a73e8"/>
  <circle cx="256" cy="256" r="70" fill="#8ab4f8"/>
</svg>
